<svg version="1.1" xmlns="http://www.w3.org/2000/svg" xmlns:xlink="http://www.w3.org/1999/xlink" preserveAspectRatio="xMidYMid meet" viewBox="1126 550 296 167"><g data-item-type="text" data-item="Business" id="logo__item--business" class="logo__item">
                <g class="logo__item__inner" transform="translate(1187.953125 684.1670142039221) scale(1 1) rotate(0 0 0)">
                    <text data-part-id="logo__item--business" dy="0" dominant-baseline="auto" alignment-baseline="auto" font-family="Montserrat" font-size="32px" fill="#00572D" letter-spacing="0" font-weight="bold" font-style="normal" data-font-family="Montserrat" data-font-weight="bold" data-font-style="normal" data-ttf-url="/builder_assets/fontsttf/font-montserrat-bold-normal.ttf">Pet Me</text>
                </g>
            </g><g data-item-type="text" id="logo__item--tagline_1" data-item="Tagline" class="logo__item">
    <g class="logo__item__inner" transform="translate(1127.5234375 711.1670142039221) scale(1 1) rotate(0 0 0)">
        <text dy="0" dominant-baseline="auto" alignment-baseline="auto" font-family="Open Sans--normal--normal" font-size="18px" fill="#00572D" letter-spacing="1" data-font-family="Open Sans" data-font-weight="normal" data-font-style="normal" font-weight="normal" font-style="normal" data-ttf-url="/builder_assets/fontsttf/font-open-sans-normal-normal.ttf" data-part-id="logo__item--tagline_1__0">Dog and Cat petting services</text>
    </g>
</g><g data-item-type="image" data-item="Image" data-logo-item="" id="logo__item--logo_0" class="logo__item">
    <g class="logo__item__inner" transform="translate(1177.0757711948518 527.5) scale(1.367825934882899 1.367825934882899) rotate(0 0 0)">
        
<g>
	<path fill-rule="evenodd" clip-rule="evenodd" fill="#00572D" d="M66.105,29.349c0.006-6.188,29.08-18.058,27.344-2.187   C92.793,33.15,70.314,34.393,66.105,29.349" data-part-id="logo__item--logo_0__0"></path>
	<path fill-rule="evenodd" clip-rule="evenodd" fill="#00572D" d="M60.999,31.9c7.807-1.881,13.531,15.556,13.494,23.332   c-0.061,10.89-10.195,15.37-15.678,6.561C54.298,54.535,53.321,33.75,60.999,31.9 M62.823,51.585   c1.184-0.274,2.315-0.604,2.19-2.187C63.303,46.236,59.21,50.326,62.823,51.585" data-part-id="logo__item--logo_0__1"></path>
	<path fill-rule="evenodd" clip-rule="evenodd" fill="#00572D" d="M31.107,32.264c1.131,4.905-3.715,6.378-6.56,8.751   c-4.041,3.362-8.297,11.302-14.949,9.843c-2.875-0.635-4.302-4.742-3.648-7.657C7.743,35.235,21.73,31.62,31.107,32.264" data-part-id="logo__item--logo_0__2"></path>
	<path fill-rule="evenodd" clip-rule="evenodd" fill="#00572D" d="M39.127,47.212c3.527,8.81-9.513,9.759-8.752,2.919   C30.726,46.999,35.774,45.704,39.127,47.212" data-part-id="logo__item--logo_0__3"></path>
	<path fill-rule="evenodd" clip-rule="evenodd" fill="#00572D" d="M51.889,72.367c2.268,4.195,5.128,8.441,10.209,8.384   c6.241-0.072,7.48-6.353,10.572-10.571c0.799,7.607-4.599,14.115-13.124,12.395c-3.993,4.59-14.506,4.487-18.959,0.362   c-9.133,0.741-13.409-5.291-13.125-12.757c3.375,3.73,4.014,10.162,10.21,10.571c4.95,0.332,8.297-3.815,10.57-8.021   c-2.623-1.24-7.381-4.887-4.011-8.746c2.548-2.923,11.919-1.087,12.762,0.363C58.953,67.731,55.082,71.919,51.889,72.367    M43.501,82.21c3.225,2.399,9.879,2.271,13.126,0c-2.063-2.676-4.912-4.564-6.561-7.657C48.633,77.862,45.763,79.734,43.501,82.21" data-part-id="logo__item--logo_0__4"></path>
</g>

    </g>
</g></svg>